# xmcd CD database file
#
# Track frame offsets:
#	150
#	17310
#	37245
#	56000
#	76127
#	95290
#	111717
#	130605
#	153460
#	171632
#	194770
#	213407
#	231547
#
# Disc length: 3303 seconds
#
# Revision: 0
# Processed by: cddbd v1.5PL3 Copyright (c) Steve Scherf et al.
# Submitted via: CDex 1.51
#
DISCID=ba0ce50d
DTITLE=EMERALD RAIN - Age Of Innocence
DYEAR=1999
DGENRE=Hard Rock
TTITLE0=No Saviour
TTITLE1=Desperate Heart
TTITLE2=Never Surrender
TTITLE3=Do't Tell The Rain
TTITLE4=Sleeping In The Fire
TTITLE5=Endless Grey
TTITLE6=Never Let You Go
TTITLE7=Age Of Innocence
TTITLE8=The Method
TTITLE9=Come Clean
TTITLE10=Your Disguise
TTITLE11=Barely Holding On
TTITLE12=Take A Stand
EXTD=YEAR: 1999
EXTT0=
EXTT1=
EXTT2=
EXTT3=
EXTT4=
EXTT5=
EXTT6=
EXTT7=
EXTT8=
EXTT9=
EXTT10=
EXTT11=
EXTT12=
PLAYORDER=
